<mxfile host="app.diagrams.net" modified="2024-04-07T18:55:53.232Z" agent="Mozilla/5.0 (Macintosh; Intel Mac OS X 10_15_7) AppleWebKit/537.36 (KHTML, like Gecko) Chrome/123.0.0.0 Safari/537.36" version="24.2.2" etag="XcyxmSJgzXV4K53_9-5I" type="github">
  <diagram name="Страница — 1" id="Gg_RYEMqsBIbjxTMV2cQ">
    <mxGraphModel>
      <root>
        <mxCell id="0" />
        <mxCell id="1" parent="0" />
      </root>
    </mxGraphModel>
  </diagram>
</mxfile>
